<svg xmlns="http://www.w3.org/2000/svg" viewBox="0 0 64 64">
  <defs>
    <radialGradient id="bg" cx="35%" cy="25%" r="75%">
      <stop offset="0" stop-color="#ffe98a"/>
      <stop offset=".45" stop-color="#7b26d9"/>
      <stop offset="1" stop-color="#09060e"/>
    </radialGradient>
    <linearGradient id="card" x1="0" x2="1" y1="0" y2="1">
      <stop offset="0" stop-color="#fffdf4"/>
      <stop offset="1" stop-color="#d8cfbd"/>
    </linearGradient>
  </defs>
  <rect width="64" height="64" rx="15" fill="#09060e"/>
  <circle cx="32" cy="32" r="29" fill="url(#bg)" stroke="#ffe36f" stroke-width="2"/>
  <rect x="15" y="16" width="17" height="25" rx="3" fill="url(#card)" transform="rotate(-10 23.5 28.5)"/>
  <rect x="31" y="14" width="17" height="25" rx="3" fill="url(#card)" transform="rotate(9 39.5 26.5)"/>
  <text x="21" y="30" font-family="Georgia,serif" font-size="11" font-weight="900" fill="#111">A</text>
  <text x="36" y="28" font-family="Georgia,serif" font-size="11" font-weight="900" fill="#a51024">A</text>
  <circle cx="43" cy="42" r="10" fill="#17131f" stroke="#ffe36f" stroke-width="2"/>
  <circle cx="43" cy="42" r="5" fill="#7b26d9" stroke="#ffe36f" stroke-width="1"/>
  <path d="M32 45c3-5 7-7 11-7s8 2 11 7c-4 3-8 5-11 5s-7-2-11-5z" fill="#ffe36f" opacity=".9"/>
</svg>
